<svg width="39" height="39" viewBox="0 0 39 39" fill="none" xmlns="http://www.w3.org/2000/svg">
<g id="menu 1">
<g id="Group">
<g id="Menu 1">
<path id="Vector" d="M1.21872 12.1874H37.7812C38.454 12.1874 38.9999 11.6414 38.9999 10.9687C38.9999 10.2959 38.4539 9.75 37.7812 9.75H1.21872C0.545941 9.75 0 10.296 0 10.9687C0 11.6414 0.546043 12.1874 1.21872 12.1874Z" fill="#151515"/>
<path id="Vector_2" d="M37.7812 18.2812H1.21872C0.545941 18.2812 0 18.8273 0 19.5C0 20.1726 0.546043 20.7187 1.21872 20.7187H37.7812C38.454 20.7187 38.9999 20.1726 38.9999 19.5C38.9999 18.8273 38.454 18.2812 37.7812 18.2812Z" fill="#151515"/>
<path id="Vector_3" d="M37.7812 26.8125H13.4062C12.7334 26.8125 12.1875 27.3585 12.1875 28.0312C12.1875 28.704 12.7335 29.2499 13.4062 29.2499H37.7812C38.454 29.2499 38.9999 28.7039 38.9999 28.0312C39 27.3584 38.454 26.8125 37.7812 26.8125Z" fill="#151515"/>
</g>
</g>
</g>
</svg>
